<svg xmlns="http://www.w3.org/2000/svg" width="24" height="24" viewBox="0 0 24 24" fill="none"> <path fill-rule="evenodd" clip-rule="evenodd" d="M3.80239 5.29703C2.08879 7.00731 2.08879 9.78021 3.80239 11.4905L12 19.6722L20.1976 11.4904C21.9112 9.78013 21.9112 7.00723 20.1976 5.29696C18.484 3.58668 15.7057 3.58668 13.9921 5.29696L12.5364 6.74991C12.2401 7.04558 11.7598 7.04558 11.4636 6.74991L10.0079 5.29703C8.29427 3.58676 5.51598 3.58676 3.80239 5.29703ZM11.8217 21.4788C11.6872 21.4464 11.563 21.3775 11.4635 21.2782L2.72957 12.5612C0.423475 10.2596 0.423478 6.52792 2.72957 4.22629C5.03567 1.92467 8.77458 1.92467 11.0807 4.22629L12 5.1438L12.9193 4.22622C15.2254 1.92459 18.9643 1.92459 21.2704 4.22622C23.5765 6.52785 23.5765 10.2595 21.2704 12.5611L12.5365 21.2782C12.4189 21.3956 12.2722 21.4664 12.1196 21.4905C12.0802 21.4968 12.0403 21.5 11.9999 21.5C11.9394 21.5 11.8796 21.4928 11.8217 21.4788Z" fill="#222222"/> </svg>