<svg xmlns="http://www.w3.org/2000/svg" width="17" height="16" viewBox="0 0 17 16" fill="none"> <path fill-rule="evenodd" clip-rule="evenodd" d="M8.45224 10.8714L5.5916 12.4254C5.47603 12.4858 5.34147 12.4989 5.21632 12.4622C5.09118 12.4255 4.98518 12.3418 4.92076 12.2287C4.8868 12.1232 4.8868 12.0097 4.92076 11.9042L5.52254 8.70769L3.15505 6.4849C3.08698 6.42097 3.03853 6.33905 3.01537 6.24871C2.99221 6.15838 2.99527 6.06333 3.02422 5.97467C3.05317 5.88601 3.10683 5.8074 3.1789 5.74797C3.25096 5.68855 3.33851 5.65076 3.43129 5.63905L6.65691 5.21614L8.0577 2.26554C8.10061 2.18533 8.16453 2.11824 8.24272 2.07147C8.32091 2.02469 8.41037 2 8.50155 2C8.59273 2 8.6822 2.02469 8.76039 2.07147C8.83857 2.11824 8.90256 2.18533 8.94546 2.26554L10.3364 5.21614L13.562 5.63905C13.627 5.64635 13.6898 5.66647 13.7469 5.69821C13.804 5.72994 13.8542 5.77266 13.8946 5.82391C13.935 5.87516 13.9648 5.93389 13.9822 5.99671C13.9996 6.05953 14.0043 6.1252 13.996 6.18985C13.9781 6.30306 13.9225 6.40696 13.8382 6.4849L11.4806 8.70769L12.0725 11.9042C12.0853 11.9676 12.0852 12.0328 12.0721 12.0962C12.0591 12.1595 12.0334 12.2196 11.9965 12.2728C11.9597 12.326 11.9126 12.3713 11.8578 12.406C11.8031 12.4407 11.7419 12.464 11.6779 12.4746C11.5721 12.5085 11.4582 12.5085 11.3524 12.4746L8.45224 10.8714Z" fill="black"/> </svg>