<svg xmlns="http://www.w3.org/2000/svg" width="16" height="16" viewBox="0 0 16 16" fill="none"> <g clip-path="url(#clip0_29327_562186)"> <path d="M0 5C0 2.23858 2.23858 0 5 0H11C13.7614 0 16 2.23858 16 5V11C16 13.7614 13.7614 16 11 16H5C2.23858 16 0 13.7614 0 11V5Z" fill="#FFBC00"/> <path fill-rule="evenodd" clip-rule="evenodd" d="M14 8C14 4.68364 11.3164 2 8 2C4.68364 2 2 4.68364 2 8C2 11.3164 4.68364 14 8 14C11.3164 14 14 11.3164 14 8ZM7.72729 4.70002C8.15274 4.70002 8.50183 5.02729 8.54002 5.44184H8.54547V7.90729L10.2146 9.57639C10.5146 9.87638 10.5309 10.3509 10.2691 10.6727L10.2146 10.7327C9.91456 11.0327 9.44002 11.0491 9.1182 10.7873L9.0582 10.7327L7.14911 8.82366C7.01274 8.69275 6.93093 8.51275 6.90911 8.32729V5.5182C6.90911 5.06547 7.27456 4.70002 7.72729 4.70002Z" fill="#222222"/> </g> <defs> <clipPath id="clip0_29327_562186"> <rect width="16" height="16" fill="white"/> </clipPath> </defs> </svg>