<svg xmlns="http://www.w3.org/2000/svg" width="17" height="16" viewBox="0 0 17 16" fill="none"> <path d="M10 7.46201C10 8.29044 9.32843 8.96201 8.5 8.96201C7.67157 8.96201 7 8.29044 7 7.46201C7 6.63359 7.67157 5.96201 8.5 5.96201C9.32843 5.96201 10 6.63359 10 7.46201Z" fill="black"/> <path fill-rule="evenodd" clip-rule="evenodd" d="M12.444 4.08877C13.6846 4.82436 14.6947 5.89236 15.36 7.17201L15.5 7.46201C14.8768 8.7924 13.8873 9.91764 12.6476 10.7059C11.4078 11.4942 9.96913 11.9129 8.5 11.9129C7.03087 11.9129 5.59216 11.4942 4.35242 10.7059C3.11267 9.91764 2.12322 8.7924 1.5 7.46201C2.1112 6.15565 3.07569 5.04634 4.28442 4.2595C5.49316 3.47266 6.89789 3.03968 8.33984 3.0095C9.7818 2.97933 11.2034 3.35317 12.444 4.08877ZM6.8233 9.95642C7.31665 10.2861 7.89665 10.462 8.48999 10.462C9.28564 10.462 10.0487 10.1459 10.6113 9.58333C11.1739 9.02072 11.49 8.25766 11.49 7.46201C11.49 6.86867 11.314 6.28865 10.9844 5.7953C10.6547 5.30195 10.1862 4.91744 9.63806 4.69037C9.08988 4.46331 8.48667 4.4039 7.90472 4.51966C7.32278 4.63541 6.78821 4.92114 6.36865 5.3407C5.94909 5.76025 5.66336 6.2948 5.54761 6.87675C5.43185 7.45869 5.49126 8.06188 5.71832 8.61006C5.94539 9.15824 6.32996 9.62677 6.8233 9.95642Z" fill="black"/> </svg>